%FSTAX23Y23*%
%MOIN*%
%SFA1B1*%

%IPPOS*%
%ADD10C,0.009843*%
%ADD11C,0.020000*%
%ADD12C,0.007874*%
%ADD13C,0.006000*%
%ADD14C,0.003000*%
%ADD15C,0.005000*%
%ADD16C,0.002000*%
%LNpcb1-1*%
%LPD*%
G36*
X04198Y02063D02*
Y02073D01*
X04213*
Y02063*
X04198*
G37*
G36*
X04583Y02441D02*
X04583D01*
Y02441*
X04582*
Y02441*
X04579*
Y02441*
X04577*
Y02441*
X04577*
Y0244*
X04576*
Y0244*
X04576*
Y0244*
X04576*
Y02439*
X04575*
Y02438*
X04575*
Y02437*
X04574*
Y02434*
X04575*
Y02433*
X04575*
Y02433*
X04576*
Y02432*
X04576*
Y02432*
X04576*
Y02431*
X04577*
Y02431*
X04577*
Y02431*
X04578*
Y0243*
X04582*
Y02431*
X04583*
Y02431*
X04583*
Y02431*
X04584*
Y02432*
X04584*
Y02432*
X04584*
Y02433*
X04585*
Y02433*
X04585*
Y02434*
X04586*
Y02436*
X04586*
Y02437*
X04587*
Y02437*
X04588*
Y02437*
X04589*
Y02438*
X04589*
Y02438*
X0459*
Y02438*
X04599*
Y02438*
X04599*
Y02437*
X04598*
Y02436*
X04598*
Y02434*
X04597*
Y02433*
X04597*
Y02432*
X04597*
Y02431*
X04596*
Y0243*
X04596*
Y02428*
X04596*
Y02427*
X04595*
Y02426*
X04595*
Y02425*
X04594*
Y02424*
X04594*
Y02423*
X04594*
Y02421*
X04593*
Y0242*
X04593*
Y02419*
X04593*
Y02417*
X04592*
Y0241*
X04593*
Y02409*
X04593*
Y02407*
X04593*
Y02406*
X04594*
Y02405*
X04594*
Y02403*
X04594*
Y02402*
X04595*
Y02401*
X04595*
Y024*
X04596*
Y02399*
X04596*
Y02398*
X04596*
Y02397*
X04597*
Y02396*
X04597*
Y02395*
X04597*
Y02394*
X04598*
Y02393*
X04598*
Y02392*
X04599*
Y02391*
X04599*
Y02389*
X04599*
Y02389*
X04559*
Y02389*
X04559*
Y02391*
X04559*
Y02393*
X04559*
Y02394*
X0456*
Y02397*
X0456*
Y024*
X0456*
Y02403*
X0456*
Y02406*
X0456*
Y02406*
X04559*
Y02407*
X04559*
Y02407*
X04559*
Y02408*
X04558*
Y02408*
X04557*
Y02409*
X04555*
Y02408*
X04553*
Y02408*
X04551*
Y02407*
X04549*
Y02407*
X04544*
Y02407*
X04542*
Y02408*
X04541*
Y02408*
X0454*
Y02409*
X0454*
Y02409*
X0454*
Y02414*
X0454*
Y02415*
X0454*
Y02416*
X04539*
Y02417*
X04539*
Y02417*
X04539*
Y02417*
X04538*
Y02418*
X04538*
Y0242*
X04538*
Y02421*
X04538*
Y02421*
X04537*
Y02422*
X04537*
Y02422*
X04536*
Y02427*
X04536*
Y02428*
X04536*
Y02428*
X04533*
Y02428*
X04533*
Y02429*
X04532*
Y02429*
X04532*
Y02432*
X04532*
Y02433*
X04533*
Y02433*
X04533*
Y02434*
X04533*
Y02435*
X04534*
Y02436*
X04534*
Y02436*
X04535*
Y02437*
X04535*
Y02438*
X04535*
Y02438*
X04536*
Y02439*
X04536*
Y0244*
X04536*
Y0244*
X04537*
Y02441*
X04537*
Y02445*
X04537*
Y02446*
X04536*
Y02447*
X04536*
Y02447*
X04536*
Y02448*
X04535*
Y02456*
X04536*
Y02458*
X04536*
Y0246*
X04536*
Y02461*
X04537*
Y02462*
X04537*
Y02463*
X04537*
Y02463*
X04538*
Y02464*
X04538*
Y02465*
X04539*
Y02465*
X04539*
Y02466*
X04539*
Y02466*
X0454*
Y02467*
X0454*
Y02467*
X0454*
Y02468*
X04541*
Y02468*
X04542*
Y02469*
X04542*
Y0247*
X04542*
Y0247*
X04543*
Y0247*
X04543*
Y02471*
X04543*
Y02471*
X04544*
Y02471*
X04545*
Y02472*
X04545*
Y02472*
X04545*
Y02473*
X04546*
Y02473*
X04546*
Y02473*
X04547*
Y02474*
X04547*
Y02474*
X04548*
Y02474*
X04549*
Y02475*
X04549*
Y02475*
X0455*
Y02475*
X04551*
Y02476*
X04552*
Y02476*
X04553*
Y02477*
X04554*
Y02477*
X04555*
Y02477*
X04556*
Y02478*
X04558*
Y02478*
X04559*
Y02478*
X04562*
Y02479*
X04571*
Y02478*
X04574*
Y02478*
X04576*
Y02478*
X04578*
Y02477*
X04579*
Y02477*
X0458*
Y02477*
X04581*
Y02476*
X04582*
Y02476*
X04583*
Y02475*
X04584*
Y02475*
X04585*
Y02475*
X04586*
Y02474*
X04587*
Y02474*
X04587*
Y02474*
X04588*
Y02473*
X04589*
Y02473*
X04589*
Y02473*
X0459*
Y02472*
X0459*
Y02472*
X04591*
Y02471*
X04592*
Y02471*
X04592*
Y02471*
X04592*
Y0247*
X04593*
Y0247*
X04593*
Y0247*
X04593*
Y02469*
X04594*
Y02469*
X04594*
Y02468*
X04594*
Y02468*
X04595*
Y02468*
X04595*
Y02467*
X04596*
Y02467*
X04596*
Y02466*
X04596*
Y02465*
X04597*
Y02465*
X04597*
Y02464*
X04597*
Y02464*
X04598*
Y02463*
X04598*
Y02462*
X04599*
Y02461*
X04579*
Y02461*
X04579*
Y02461*
X04578*
Y02462*
X04577*
Y02462*
X04577*
Y02463*
X04576*
Y02463*
X04576*
Y02463*
X04575*
Y02464*
X04575*
Y02464*
X04574*
Y02464*
X04574*
Y02465*
X04573*
Y02465*
X04573*
Y02465*
X04572*
Y02466*
X04572*
Y02466*
X04571*
Y02467*
X0457*
Y02467*
X0457*
Y02467*
X0457*
Y02468*
X04569*
Y02468*
X04569*
Y02468*
X04568*
Y02469*
X0456*
Y02469*
X0456*
Y0247*
X0456*
Y0247*
X04559*
Y02471*
X04559*
Y02471*
X04559*
Y02471*
X04558*
Y02472*
X04557*
Y02472*
X04554*
Y02472*
X04553*
Y02471*
X04552*
Y02471*
X04552*
Y02471*
X04551*
Y0247*
X04551*
Y0247*
X0455*
Y02469*
X0455*
Y02468*
X0455*
Y02465*
X0455*
Y02464*
X0455*
Y02464*
X04551*
Y02463*
X04551*
Y02463*
X04552*
Y02462*
X04552*
Y02462*
X04553*
Y02461*
X04554*
Y02461*
X04557*
Y02461*
X04558*
Y02462*
X04559*
Y02462*
X04559*
Y02463*
X04559*
Y02463*
X0456*
Y02463*
X0456*
Y02464*
X04567*
Y02464*
X04567*
Y02463*
X04568*
Y02463*
X04569*
Y02463*
X04569*
Y02462*
X0457*
Y02462*
X0457*
Y02461*
X04571*
Y02461*
X04571*
Y02461*
X04572*
Y0246*
X04572*
Y0246*
X04573*
Y0246*
X04573*
Y02459*
X04574*
Y02459*
X04574*
Y02458*
X04575*
Y02458*
X04576*
Y02458*
X04576*
Y02457*
X04577*
Y02457*
X04577*
Y02457*
X04578*
Y02456*
X046*
Y02457*
X046*
Y02457*
X04601*
Y02457*
X04601*
Y02458*
X04601*
Y02458*
X04602*
Y02458*
X04602*
Y02459*
X04603*
Y02459*
X04603*
Y0246*
X04603*
Y0246*
X04604*
Y02461*
X04604*
Y02461*
X04612*
Y02461*
X04612*
Y02462*
X04613*
Y02463*
X04613*
Y02463*
X04613*
Y02463*
X04614*
Y02464*
X04614*
Y02464*
X04615*
Y02464*
X04619*
Y02464*
X0462*
Y02464*
X0462*
Y02463*
X04621*
Y02463*
X04621*
Y02463*
X04621*
Y02462*
X04622*
Y02461*
X04622*
Y0246*
X04623*
Y02458*
X04622*
Y02457*
X04622*
Y02456*
X04621*
Y02455*
X04621*
Y02455*
X04621*
Y02455*
X0462*
Y02454*
X0462*
Y02454*
X04619*
Y02454*
X04618*
Y02453*
X04616*
Y02454*
X04615*
Y02454*
X04614*
Y02454*
X04613*
Y02455*
X04613*
Y02455*
X04613*
Y02456*
X04612*
Y02456*
X04612*
Y02457*
X04606*
Y02456*
X04606*
Y02455*
X04605*
Y02455*
X04605*
Y02455*
X04604*
Y02454*
X04604*
Y02454*
X04604*
Y02454*
X04603*
Y02453*
X04603*
Y02453*
X04603*
Y02453*
X04602*
Y02452*
X04602*
Y02452*
X04569*
Y02451*
X04568*
Y02451*
X04567*
Y02451*
X04566*
Y0245*
X04566*
Y0245*
X04565*
Y0245*
X04564*
Y02449*
X04563*
Y02449*
X04563*
Y02448*
X04562*
Y02448*
X04561*
Y02448*
X0456*
Y02447*
X0456*
Y02447*
X04559*
Y02447*
X04558*
Y02446*
X04557*
Y02446*
X04556*
Y02446*
X04556*
Y02445*
X0455*
Y02446*
X0455*
Y02446*
X0455*
Y02446*
X04549*
Y02447*
X04549*
Y02447*
X04549*
Y02447*
X04548*
Y02448*
X04547*
Y02448*
X04543*
Y02448*
X04543*
Y02447*
X04542*
Y02447*
X04542*
Y02447*
X04541*
Y02446*
X04541*
Y02446*
X0454*
Y02445*
X0454*
Y02444*
X0454*
Y02441*
X0454*
Y0244*
X0454*
Y0244*
X04541*
Y02439*
X04541*
Y02438*
X04542*
Y02438*
X04542*
Y02438*
X04543*
Y02437*
X04544*
Y02437*
X04547*
Y02437*
X04548*
Y02438*
X04549*
Y02438*
X04549*
Y02438*
X04549*
Y02439*
X0455*
Y02439*
X0455*
Y0244*
X0455*
Y0244*
X04551*
Y02441*
X04557*
Y02441*
X04558*
Y02441*
X04559*
Y02442*
X04559*
Y02442*
X0456*
Y02443*
X04561*
Y02443*
X04562*
Y02443*
X04562*
Y02444*
X04563*
Y02444*
X04564*
Y02444*
X04564*
Y02445*
X04565*
Y02445*
X04566*
Y02446*
X04567*
Y02446*
X04567*
Y02446*
X04568*
Y02447*
X04569*
Y02447*
X0457*
Y02447*
X04614*
Y02447*
X04614*
Y02447*
X04614*
Y02446*
X04615*
Y02446*
X04615*
Y02446*
X04616*
Y02445*
X04616*
Y02445*
X04616*
Y02444*
X04617*
Y02444*
X04617*
Y02444*
X04617*
Y02443*
X04618*
Y02443*
X04618*
Y02443*
X04619*
Y02442*
X04622*
Y02443*
X04622*
Y02443*
X04623*
Y02444*
X04623*
Y02444*
X04623*
Y02444*
X04624*
Y02445*
X04624*
Y02445*
X04626*
Y02446*
X04629*
Y02445*
X0463*
Y02445*
X0463*
Y02444*
X04631*
Y02444*
X04631*
Y02444*
X04631*
Y02443*
X04632*
Y02443*
X04632*
Y02441*
X04633*
Y02438*
X04632*
Y02437*
X04632*
Y02437*
X04631*
Y02436*
X04631*
Y02436*
X04631*
Y02436*
X0463*
Y02435*
X0463*
Y02435*
X04629*
Y02434*
X04626*
Y02435*
X04624*
Y02435*
X04624*
Y02436*
X04623*
Y02436*
X04623*
Y02436*
X04623*
Y02437*
X04622*
Y02437*
X04622*
Y02438*
X04617*
Y02438*
X04617*
Y02438*
X04616*
Y02439*
X04616*
Y02439*
X04616*
Y0244*
X04615*
Y0244*
X04615*
Y0244*
X04614*
Y02441*
X04614*
Y02441*
X04613*
Y02441*
X04613*
Y02442*
X04613*
Y02442*
X04612*
Y02443*
X04612*
Y02443*
X04589*
Y02443*
X04588*
Y02442*
X04587*
Y02442*
X04586*
Y02441*
X04586*
Y02441*
X04585*
Y02441*
X04584*
Y0244*
X04583*
Y02441*
X04583*
G37*
G54D10*
X0408Y0238D02*
D01*
X0408Y0238*
X0408Y0238*
X0408Y02381*
X0408Y02381*
X0408Y02381*
X0408Y02382*
X0408Y02382*
X04079Y02382*
X04079Y02382*
X04079Y02383*
X04079Y02383*
X04079Y02383*
X04078Y02383*
X04078Y02384*
X04078Y02384*
X04077Y02384*
X04077Y02384*
X04077Y02384*
X04076Y02384*
X04076Y02384*
X04076Y02384*
X04075Y02384*
X04075*
X04075Y02384*
X04074Y02384*
X04074Y02384*
X04074Y02384*
X04073Y02384*
X04073Y02384*
X04073Y02384*
X04073Y02384*
X04072Y02383*
X04072Y02383*
X04072Y02383*
X04072Y02383*
X04071Y02382*
X04071Y02382*
X04071Y02382*
X04071Y02382*
X04071Y02381*
X04071Y02381*
X0407Y02381*
X0407Y0238*
X0407Y0238*
X0407Y0238*
X0407Y02379*
X0407Y02379*
X0407Y02378*
X04071Y02378*
X04071Y02378*
X04071Y02378*
X04071Y02377*
X04071Y02377*
X04071Y02377*
X04072Y02376*
X04072Y02376*
X04072Y02376*
X04072Y02376*
X04073Y02375*
X04073Y02375*
X04073Y02375*
X04073Y02375*
X04074Y02375*
X04074Y02375*
X04074Y02375*
X04075Y02375*
X04075Y02375*
X04075*
X04076Y02375*
X04076Y02375*
X04076Y02375*
X04077Y02375*
X04077Y02375*
X04077Y02375*
X04078Y02375*
X04078Y02375*
X04078Y02376*
X04079Y02376*
X04079Y02376*
X04079Y02376*
X04079Y02377*
X04079Y02377*
X0408Y02377*
X0408Y02378*
X0408Y02378*
X0408Y02378*
X0408Y02378*
X0408Y02379*
X0408Y02379*
X0408Y0238*
G54D11*
X0394Y01743D02*
D01*
X03939Y01743*
X03939Y01744*
X03939Y01745*
X03939Y01745*
X03939Y01746*
X03939Y01747*
X03938Y01747*
X03938Y01748*
X03938Y01748*
X03937Y01749*
X03937Y01749*
X03936Y0175*
X03936Y0175*
X03935Y01751*
X03935Y01751*
X03934Y01751*
X03933Y01752*
X03933Y01752*
X03932Y01752*
X03931Y01752*
X03931Y01752*
X0393Y01752*
X03929*
X03928Y01752*
X03928Y01752*
X03927Y01752*
X03926Y01752*
X03926Y01752*
X03925Y01751*
X03925Y01751*
X03924Y01751*
X03923Y0175*
X03923Y0175*
X03922Y01749*
X03922Y01749*
X03921Y01748*
X03921Y01748*
X03921Y01747*
X0392Y01747*
X0392Y01746*
X0392Y01745*
X0392Y01745*
X0392Y01744*
X0392Y01743*
X0392Y01743*
X0392Y01742*
X0392Y01741*
X0392Y0174*
X0392Y0174*
X0392Y01739*
X0392Y01738*
X03921Y01738*
X03921Y01737*
X03921Y01737*
X03922Y01736*
X03922Y01736*
X03923Y01735*
X03923Y01735*
X03924Y01734*
X03925Y01734*
X03925Y01734*
X03926Y01733*
X03926Y01733*
X03927Y01733*
X03928Y01733*
X03928Y01733*
X03929Y01733*
X0393*
X03931Y01733*
X03931Y01733*
X03932Y01733*
X03933Y01733*
X03933Y01733*
X03934Y01734*
X03935Y01734*
X03935Y01734*
X03936Y01735*
X03936Y01735*
X03937Y01736*
X03937Y01736*
X03938Y01737*
X03938Y01737*
X03938Y01738*
X03939Y01738*
X03939Y01739*
X03939Y0174*
X03939Y0174*
X03939Y01741*
X03939Y01742*
X0394Y01743*
G54D12*
X04101Y02431D02*
X04401D01*
Y02331D02*
Y02431D01*
X04101Y02331D02*
X04401D01*
X04101D02*
Y02431D01*
G54D13*
X03875Y01771D02*
Y01879D01*
X04585*
Y01771D02*
Y01879D01*
X03875Y01771D02*
X04585D01*
G54D14*
X03819Y02466D02*
Y02446D01*
X03832*
X03852Y02463D02*
X03848Y02466D01*
X03842*
X03838Y02463*
Y02459*
X03842Y02456*
X03848*
X03852Y02453*
Y02449*
X03848Y02446*
X03842*
X03838Y02449*
X03858Y02446D02*
Y02466D01*
X03865Y02459*
X03872Y02466*
Y02446*
X03878Y02463D02*
X03882Y02466D01*
X03888*
X03892Y02463*
Y02459*
X03888Y02456*
X03885*
X03888*
X03892Y02453*
Y02449*
X03888Y02446*
X03882*
X03878Y02449*
X03898Y02463D02*
X03902Y02466D01*
X03908*
X03912Y02463*
Y02449*
X03908Y02446*
X03902*
X03898Y02449*
Y02463*
X03918D02*
X03922Y02466D01*
X03928*
X03932Y02463*
Y02459*
X03928Y02456*
X03925*
X03928*
X03932Y02453*
Y02449*
X03928Y02446*
X03922*
X03918Y02449*
X03938Y02446D02*
Y02459D01*
X03945Y02466*
X03952Y02459*
Y02446*
Y02456*
X03938*
X03972Y02463D02*
X03968Y02466D01*
X03962*
X03958Y02463*
Y02449*
X03962Y02446*
X03968*
X03972Y02449*
Y02456*
X03965*
X03978Y02446D02*
Y02466D01*
X03988*
X03992Y02463*
Y02456*
X03988Y02453*
X03978*
X03985D02*
X03992Y02446D01*
X03819Y02435D02*
Y02415D01*
X03828*
X03832Y02418*
Y02421*
X03828Y02425*
X03819*
X03828*
X03832Y02428*
Y02431*
X03828Y02435*
X03819*
X03838Y02428D02*
Y02415D01*
Y02421*
X03842Y02425*
X03845Y02428*
X03848*
X03868Y02415D02*
X03862D01*
X03858Y02418*
Y02425*
X03862Y02428*
X03868*
X03872Y02425*
Y02421*
X03858*
X03882Y02428D02*
X03888D01*
X03892Y02425*
Y02415*
X03882*
X03878Y02418*
X03882Y02421*
X03892*
X03898Y02415D02*
Y02435D01*
Y02421D02*
X03908Y02428D01*
X03898Y02421D02*
X03908Y02415D01*
X03922D02*
X03928D01*
X03932Y02418*
Y02425*
X03928Y02428*
X03922*
X03918Y02425*
Y02418*
X03922Y02415*
X03938Y02428D02*
Y02418D01*
X03942Y02415*
X03952*
Y02428*
X03962Y02431D02*
Y02428D01*
X03958*
X03965*
X03962*
Y02418*
X03965Y02415*
X03819Y02403D02*
X03832D01*
X03825*
Y02384*
X03848D02*
X03842D01*
X03838Y02387*
Y02393*
X03842Y02397*
X03848*
X03852Y02393*
Y0239*
X03838*
X03858Y02384D02*
X03868D01*
X03872Y02387*
X03868Y0239*
X03862*
X03858Y02393*
X03862Y02397*
X03872*
X03882Y024D02*
Y02397D01*
X03878*
X03885*
X03882*
Y02387*
X03885Y02384*
X03915Y02403D02*
Y02384D01*
X03925*
X03928Y02387*
Y0239*
X03925Y02393*
X03915*
X03925*
X03928Y02397*
Y024*
X03925Y02403*
X03915*
X03938Y02384D02*
X03945D01*
X03948Y02387*
Y02393*
X03945Y02397*
X03938*
X03935Y02393*
Y02387*
X03938Y02384*
X03958Y02397D02*
X03965D01*
X03968Y02393*
Y02384*
X03958*
X03955Y02387*
X03958Y0239*
X03968*
X03975Y02397D02*
Y02384D01*
Y0239*
X03978Y02393*
X03982Y02397*
X03985*
X04008Y02403D02*
Y02384D01*
X03998*
X03995Y02387*
Y02393*
X03998Y02397*
X04008*
X04164Y01944D02*
X04197Y01977D01*
Y01944D02*
X04164Y01977D01*
X04181Y01944D02*
Y01977D01*
X04197Y0196D02*
X04164D01*
G54D15*
X04113Y02475D02*
X04103D01*
X04108*
Y0245*
X04103Y02445*
X04098*
X04093Y0245*
X04122Y02445D02*
X04132D01*
X04127*
Y02475*
X04122Y0247*
X04557Y01752D02*
X04547D01*
X04552*
Y01727*
X04547Y01722*
X04542*
X04537Y01727*
X04586Y01722D02*
X04567D01*
X04586Y01742*
Y01747*
X04581Y01752*
X04571*
X04567Y01747*
X04235Y01973D02*
Y01949D01*
X0424Y01944*
X0425*
X04255Y01949*
Y01973*
X04264Y01944D02*
X04274D01*
X04269*
Y01973*
X04264Y01968*
X04071Y02032D02*
X04066Y02037D01*
X04056*
X04051Y02032*
Y02013*
X04056Y02008*
X04066*
X04071Y02013*
X0408Y02008D02*
X0409D01*
X04085*
Y02037*
X0408Y02032*
X04329Y02076D02*
X04324Y02081D01*
X04314*
X04309Y02076*
Y02056*
X04314Y02051*
X04324*
X04329Y02056*
X04339Y02076D02*
X04343Y02081D01*
X04353*
X04358Y02076*
Y02071*
X04353Y02066*
X04348*
X04353*
X04358Y02061*
Y02056*
X04353Y02051*
X04343*
X04339Y02056*
X04204Y02219D02*
X04199Y02224D01*
X04189*
X04184Y02219*
Y022*
X04189Y02195*
X04199*
X04204Y022*
X04228Y02195D02*
Y02224D01*
X04214Y0221*
X04233*
X04269Y02219D02*
X04264Y02224D01*
X04254*
X04249Y02219*
Y022*
X04254Y02195*
X04264*
X04269Y022*
X04298Y02195D02*
X04279D01*
X04298Y02215*
Y02219*
X04293Y02224*
X04283*
X04279Y02219*
G54D16*
X03825Y02364D02*
X03824Y02366D01*
X0382*
X03819Y02364*
Y02362*
X0382Y02361*
X03824*
X03825Y02359*
Y02358*
X03824Y02356*
X0382*
X03819Y02358*
X03828Y02366D02*
Y02356D01*
Y02361*
X0383Y02362*
X03833*
X03835Y02361*
Y02356*
X03838Y02362D02*
Y02356D01*
Y02359*
X0384Y02361*
X03842Y02362*
X03843*
X03853Y02356D02*
X0385D01*
X03848Y02358*
Y02361*
X0385Y02362*
X03853*
X03855Y02361*
Y02359*
X03848*
X03858Y02362D02*
Y02358D01*
X0386Y02356*
X03865*
Y02354*
X03863Y02353*
X03862*
X03865Y02356D02*
Y02362D01*
X0387D02*
X03873D01*
X03875Y02361*
Y02356*
X0387*
X03868Y02358*
X0387Y02359*
X03875*
X03878Y02356D02*
X03883D01*
X03885Y02358*
X03883Y02359*
X0388*
X03878Y02361*
X0388Y02362*
X03885*
X03898Y02356D02*
Y02366D01*
X03905Y02356*
Y02366*
X0391Y02362D02*
X03913D01*
X03915Y02361*
Y02356*
X0391*
X03908Y02358*
X0391Y02359*
X03915*
X03918Y02362D02*
Y02356D01*
Y02359*
X0392Y02361*
X03922Y02362*
X03923*
X0393D02*
X03933D01*
X03935Y02361*
Y02356*
X0393*
X03928Y02358*
X0393Y02359*
X03935*
X03938Y02362D02*
Y02358D01*
X0394Y02356*
X03945*
Y02354*
X03943Y02353*
X03942*
X03945Y02356D02*
Y02362D01*
X0395D02*
X03953D01*
X03955Y02361*
Y02356*
X0395*
X03948Y02358*
X0395Y02359*
X03955*
X03958Y02356D02*
Y02362D01*
X03963*
X03965Y02361*
Y02356*
X0397Y02362D02*
X03973D01*
X03975Y02361*
Y02356*
X0397*
X03968Y02358*
X0397Y02359*
X03975*
X03978Y02356D02*
Y02362D01*
X03983*
X03985Y02361*
Y02356*
M02*