%FSTAX23Y23*%
%MOIN*%
%SFA1B1*%

%IPPOS*%
%ADD21R,0.061024X0.061024*%
%ADD22C,0.061024*%
%ADD23C,0.060000*%
%ADD24R,0.060000X0.060000*%
%ADD26R,0.013839X0.014831*%
%ADD27R,0.014831X0.013839*%
%ADD28R,0.045275X0.043307*%
%ADD29R,0.043307X0.045275*%
%ADD30C,0.004000*%
%ADD31C,0.010000*%
%ADD32C,0.040000*%
%ADD33C,0.050000*%
%LNpcb1-1*%
%LPD*%
G54D21*
X04151Y02381D03*
G54D22*
X04251Y02381D03*
X04351D03*
G54D23*
X0453Y01825D03*
X0443D03*
X0433D03*
X0423D03*
X0413D03*
X0403D03*
G54D24*
X0393Y01825D03*
G54D26*
X04206Y01988D03*
X04226D03*
X04245D03*
X04265D03*
Y02046D03*
X04245D03*
X04226D03*
X04206D03*
G54D27*
X04265Y02007D03*
Y02027D03*
X04206D03*
Y02007D03*
G54D28*
X04134Y02065D03*
X04071D03*
X04274Y02112D03*
X04211D03*
Y02168D03*
X04274D03*
G54D29*
X04332Y02022D03*
Y01959D03*
G54D30*
X04654Y01661D02*
X04668D01*
X04654D02*
Y01675D01*
Y01647D02*
Y01661D01*
X04639D02*
X04654D01*
X03798Y02536D02*
X03812D01*
X03798D02*
Y0255D01*
Y02522D02*
Y02536D01*
X03783D02*
X03798D01*
X03797Y01663D02*
X03811D01*
X03797D02*
Y01677D01*
Y01649D02*
Y01663D01*
X03782D02*
X03797D01*
X0464Y02534D02*
X04655D01*
Y0252D02*
Y02534D01*
Y02548*
Y02534D02*
X04669D01*
G54D31*
X0393Y01825D02*
X03956Y01852D01*
X03957*
X0403Y01825D02*
Y01896D01*
X03957Y01852D02*
X04132Y02027D01*
X0403Y01896D02*
X04141Y02007D01*
X0413Y01825D02*
Y01966D01*
X04152Y01988*
X04141Y02007D02*
X04206D01*
X04152Y01988D02*
X04206D01*
X04226D02*
X04227Y01986D01*
Y01827D02*
Y01986D01*
Y01827D02*
X0423Y01825D01*
X04185Y02046D02*
X04206D01*
X04134Y02065D02*
X04167D01*
X04132Y02027D02*
X04206D01*
X04167Y02065D02*
X04185Y02046D01*
X04226D02*
Y02064D01*
X04245Y01988D02*
X04246Y01987D01*
Y01956D02*
Y01987D01*
X04265Y0196D02*
Y01988D01*
X04265Y02007D02*
X04285D01*
X04265Y02046D02*
X04295D01*
X04246Y01956D02*
X0433Y01873D01*
X04265Y02027D02*
X04327D01*
X04285Y02007D02*
X04332Y0196D01*
X04265Y0196D02*
X04393Y01832D01*
X04327Y02027D02*
X04332Y02022D01*
X0433Y01825D02*
Y01873D01*
X04332Y01959D02*
Y0196D01*
X04393Y01832D02*
X04422D01*
X0443Y01825*
X04404Y02062D02*
X0453Y01936D01*
Y01825D02*
Y01936D01*
X04245Y02046D02*
X04247Y02048D01*
Y02061*
X04257Y02071*
X04267*
X04273Y02077*
Y02112*
Y02167D02*
X04274Y02168D01*
X04295Y02046D02*
X04311Y02062D01*
X04404*
X04211Y0208D02*
Y02112D01*
Y02167D02*
X04211Y02168D01*
X04211Y0208D02*
X04226Y02064D01*
G54D32*
X04071Y02065D02*
Y02128D01*
X04134Y02065D02*
Y02203D01*
X04251Y0232*
X04332Y02022D02*
X04332Y02022D01*
X04387*
X04388Y02022*
X04251Y0232D02*
Y02381D01*
X04273Y02112D02*
Y02167D01*
X04274Y02168D02*
X04274Y02167D01*
X04213Y02193D02*
X0435Y0233D01*
X04274Y02167D02*
X04329D01*
X0433Y02167*
X0435Y0233D02*
Y0238D01*
X04351Y02381*
X04211Y02112D02*
Y02167D01*
X04211Y02168D02*
X04211D01*
X04213Y02169*
Y02193*
G54D33*
X0433Y02167D03*
X04388Y02022D03*
X04071Y02128D03*
M02*