%FSTAX23Y23*%
%MOIN*%
%SFA1B1*%

%IPPOS*%
%ADD21R,0.061024X0.061024*%
%ADD22C,0.061024*%
%ADD23C,0.060000*%
%ADD24R,0.060000X0.060000*%
%ADD30C,0.004000*%
%ADD33C,0.050000*%
%LNpcb1-1*%
%LPD*%
G36*
X04633Y0247D02*
Y01716D01*
X03815*
Y01909*
X03818Y02479*
X04629*
X04633Y0247*
G37*
%LNpcb1-2*%
%LPC*%
G36*
X04191Y02421D02*
X04156D01*
Y02386*
X04191*
Y02421*
G37*
G36*
X04146D02*
X0411D01*
Y02386*
X04146*
Y02421*
G37*
G36*
X04356D02*
X04345D01*
X04335Y02418*
X04326Y02413*
X04318Y02405*
X04313Y02396*
X0431Y02386*
Y02375*
X04313Y02365*
X04318Y02356*
X04326Y02348*
X04335Y02343*
X04345Y0234*
X04356*
X04366Y02343*
X04375Y02348*
X04383Y02356*
X04388Y02365*
X04391Y02375*
Y02386*
X04388Y02396*
X04383Y02405*
X04375Y02413*
X04366Y02418*
X04356Y02421*
G37*
G36*
X04256D02*
X04245D01*
X04235Y02418*
X04226Y02413*
X04218Y02405*
X04213Y02396*
X0421Y02386*
Y02375*
X04213Y02365*
X04218Y02356*
X04226Y02348*
X04235Y02343*
X04245Y0234*
X04256*
X04266Y02343*
X04275Y02348*
X04283Y02356*
X04288Y02365*
X04291Y02375*
Y02386*
X04288Y02396*
X04283Y02405*
X04275Y02413*
X04266Y02418*
X04256Y02421*
G37*
G36*
X04191Y02376D02*
X04156D01*
Y0234*
X04191*
Y02376*
G37*
G36*
X04146D02*
X0411D01*
Y0234*
X04146*
Y02376*
G37*
G36*
X04335Y02201D02*
Y02172D01*
X04364*
X04362Y0218*
X04358Y02188*
X04351Y02195*
X04343Y02199*
X04335Y02201*
G37*
G36*
X04325D02*
X04316Y02199D01*
X04308Y02195*
X04301Y02188*
X04297Y0218*
X04295Y02172*
X04325*
Y02201*
G37*
G36*
X04076Y02162D02*
Y02133D01*
X04106*
X04104Y02141*
X04099Y02149*
X04092Y02156*
X04085Y0216*
X04076Y02162*
G37*
G36*
X04066D02*
X04057Y0216D01*
X0405Y02156*
X04043Y02149*
X04038Y02141*
X04036Y02133*
X04066*
Y02162*
G37*
G36*
X04364Y02162D02*
X04335D01*
Y02132*
X04343Y02134*
X04351Y02138*
X04358Y02145*
X04362Y02153*
X04364Y02162*
G37*
G36*
X04325D02*
X04295D01*
X04297Y02153*
X04301Y02145*
X04308Y02138*
X04316Y02134*
X04325Y02132*
Y02162*
G37*
G36*
X04106Y02123D02*
X04076D01*
Y02093*
X04085Y02095*
X04092Y02099*
X04099Y02106*
X04104Y02114*
X04106Y02123*
G37*
G36*
X04066D02*
X04036D01*
X04038Y02114*
X04043Y02106*
X0405Y02099*
X04057Y02095*
X04066Y02093*
Y02123*
G37*
G36*
X04393Y02056D02*
Y02027D01*
X04422*
X0442Y02035*
X04416Y02043*
X04409Y0205*
X04401Y02054*
X04393Y02056*
G37*
G36*
X04383D02*
X04374Y02054D01*
X04366Y0205*
X04359Y02043*
X04355Y02035*
X04353Y02027*
X04383*
Y02056*
G37*
G36*
X04422Y02017D02*
X04393D01*
Y01987*
X04401Y01989*
X04409Y01993*
X04416Y02*
X0442Y02008*
X04422Y02017*
G37*
G36*
X04383D02*
X04353D01*
X04355Y02008*
X04359Y02*
X04366Y01993*
X04374Y01989*
X04383Y01987*
Y02017*
G37*
G36*
X04535Y01865D02*
X04524D01*
X04514Y01862*
X04505Y01857*
X04497Y01849*
X04492Y0184*
X0449Y0183*
Y01819*
X04492Y01809*
X04497Y018*
X04505Y01792*
X04514Y01787*
X04524Y01785*
X04535*
X04545Y01787*
X04554Y01792*
X04562Y018*
X04567Y01809*
X0457Y01819*
Y0183*
X04567Y0184*
X04562Y01849*
X04554Y01857*
X04545Y01862*
X04535Y01865*
G37*
G36*
X04435D02*
X04424D01*
X04414Y01862*
X04405Y01857*
X04397Y01849*
X04392Y0184*
X0439Y0183*
Y01819*
X04392Y01809*
X04397Y018*
X04405Y01792*
X04414Y01787*
X04424Y01785*
X04435*
X04445Y01787*
X04454Y01792*
X04462Y018*
X04467Y01809*
X0447Y01819*
Y0183*
X04467Y0184*
X04462Y01849*
X04454Y01857*
X04445Y01862*
X04435Y01865*
G37*
G36*
X04335D02*
X04324D01*
X04314Y01862*
X04305Y01857*
X04297Y01849*
X04292Y0184*
X0429Y0183*
Y01819*
X04292Y01809*
X04297Y018*
X04305Y01792*
X04314Y01787*
X04324Y01785*
X04335*
X04345Y01787*
X04354Y01792*
X04362Y018*
X04367Y01809*
X0437Y01819*
Y0183*
X04367Y0184*
X04362Y01849*
X04354Y01857*
X04345Y01862*
X04335Y01865*
G37*
G36*
X04235D02*
X04224D01*
X04214Y01862*
X04205Y01857*
X04197Y01849*
X04192Y0184*
X0419Y0183*
Y01819*
X04192Y01809*
X04197Y018*
X04205Y01792*
X04214Y01787*
X04224Y01785*
X04235*
X04245Y01787*
X04254Y01792*
X04262Y018*
X04267Y01809*
X0427Y01819*
Y0183*
X04267Y0184*
X04262Y01849*
X04254Y01857*
X04245Y01862*
X04235Y01865*
G37*
G36*
X04135D02*
X04124D01*
X04114Y01862*
X04105Y01857*
X04097Y01849*
X04092Y0184*
X0409Y0183*
Y01819*
X04092Y01809*
X04097Y018*
X04105Y01792*
X04114Y01787*
X04124Y01785*
X04135*
X04145Y01787*
X04154Y01792*
X04162Y018*
X04167Y01809*
X0417Y01819*
Y0183*
X04167Y0184*
X04162Y01849*
X04154Y01857*
X04145Y01862*
X04135Y01865*
G37*
G36*
X04035D02*
X04024D01*
X04014Y01862*
X04005Y01857*
X03997Y01849*
X03992Y0184*
X0399Y0183*
Y01819*
X03992Y01809*
X03997Y018*
X04005Y01792*
X04014Y01787*
X04024Y01785*
X04035*
X04045Y01787*
X04054Y01792*
X04062Y018*
X04067Y01809*
X0407Y01819*
Y0183*
X04067Y0184*
X04062Y01849*
X04054Y01857*
X04045Y01862*
X04035Y01865*
G37*
G36*
X0397D02*
X0389D01*
Y01785*
X0397*
Y01865*
G37*
%LNpcb1-3*%
%LPD*%
G54D21*
X04151Y02381D03*
G54D22*
X04251Y02381D03*
X04351D03*
G54D23*
X0453Y01825D03*
X0443D03*
X0433D03*
X0423D03*
X0413D03*
X0403D03*
G54D24*
X0393Y01825D03*
G54D30*
X03798Y02536D02*
Y0255D01*
Y02536D02*
X03812D01*
X03783D02*
X03798D01*
Y02521D02*
Y02536D01*
X04655Y02534D02*
Y02548D01*
Y02534D02*
X04669D01*
X04655Y0252D02*
Y02534D01*
X0464D02*
X04655D01*
X03782Y01663D02*
X03811D01*
X03797Y01648D02*
Y01677D01*
X04654Y01647D02*
Y01676D01*
X04639Y01662D02*
X04668D01*
G54D33*
X0433Y02167D03*
X04388Y02022D03*
X04071Y02128D03*
M02*